<?xml version="1.0" encoding="UTF-8"?>
<svg version="1.1" xmlns="http://www.w3.org/2000/svg" width="598" height="153">
<path d="M0 0 C7.27378008 3.6536499 13.38695254 8.75896444 19.58984375 13.984375 C21.68023954 15.73258282 23.80302248 17.38922298 26 19 C26.67804688 18.43152344 27.35609375 17.86304687 28.0546875 17.27734375 C47.03464561 1.53081341 65.89456764 -8.40214651 91 -8 C91.99 -7.67 92.98 -7.34 94 -7 C94.40886556 0.90473416 93.27404634 8.40593698 91 16 C88.54487254 17.22756373 87.11461602 17.03268303 84.375 16.9375 C64.79269361 16.80984481 46.98611966 21.44667401 30 31 C29.67 31.33 29.34 31.66 29 32 C23.66709515 32.59690835 20.89119157 31.07806834 16.4375 28.25 C9.89457781 24.26757984 3.4414723 21.89546936 -4 20 C-5.12535156 19.68095703 -5.12535156 19.68095703 -6.2734375 19.35546875 C-15.09455579 16.93227618 -23.67025434 16.94625116 -32.7421875 17.2578125 C-36 17 -36 17 -37.64208984 15.75756836 C-39.26263965 13.66006062 -39.58878219 12.23107488 -39.984375 9.62109375 C-40.11457031 8.78255859 -40.24476562 7.94402344 -40.37890625 7.08007812 C-40.50136719 6.20802734 -40.62382813 5.33597656 -40.75 4.4375 C-40.88792969 3.56158203 -41.02585938 2.68566406 -41.16796875 1.78320312 C-42.13937926 -4.72124148 -42.13937926 -4.72124148 -41 -7 C-28.05699948 -11.31433351 -11.8699276 -5.05779975 0 0 Z " fill="#1A7BC9" transform="translate(94,93)"/>
<path d="M0 0 C0.75539062 -0.01611328 1.51078125 -0.03222656 2.2890625 -0.04882812 C6.98135959 -0.05292978 9.70873946 0.50817772 13.625 3.3125 C14.82125 3.76625 16.0175 4.22 17.25 4.6875 C20.95668401 6.47219971 22.03880427 7.58027474 23.625 11.3125 C23.625 12.3025 23.625 13.2925 23.625 14.3125 C24.38167969 14.36019531 25.13835937 14.40789063 25.91796875 14.45703125 C28.625 15.3125 28.625 15.3125 30.42578125 17.82421875 C31.17408203 19.39623047 31.17408203 19.39623047 31.9375 21 C32.44925781 22.03511719 32.96101563 23.07023437 33.48828125 24.13671875 C34.68396116 27.47722654 34.96579266 29.79591491 34.625 33.3125 C32.63271679 36.76068248 31.39372015 38.04024495 27.625 39.375 C24.625 39.3125 24.625 39.3125 22.25 37.375 C21.71375 36.694375 21.1775 36.01375 20.625 35.3125 C20.16609375 35.80621094 19.7071875 36.29992188 19.234375 36.80859375 C18.62078125 37.44925781 18.0071875 38.08992188 17.375 38.75 C16.77171875 39.38808594 16.1684375 40.02617188 15.546875 40.68359375 C13.50083135 42.41774051 12.27048107 43.01187715 9.625 43.3125 C8.635 42.8175 8.635 42.8175 7.625 42.3125 C7.625 41.3225 7.625 40.3325 7.625 39.3125 C3.335 38.9825 -0.955 38.6525 -5.375 38.3125 C-5.045 39.6325 -4.715 40.9525 -4.375 42.3125 C-7.375 44.3125 -7.375 44.3125 -9.80859375 44.22265625 C-13.09451816 43.05732842 -14.29539333 41.47128461 -16.4375 38.75 C-18.31582283 36.25783256 -18.31582283 36.25783256 -20.375 34.3125 C-21.695 34.3125 -23.015 34.3125 -24.375 34.3125 C-24.705 35.6325 -25.035 36.9525 -25.375 38.3125 C-30.72815985 38.66937732 -30.72815985 38.66937732 -33.1875 37.3125 C-35.01547397 34.233807 -35.52603549 30.87981447 -35.375 27.3125 C-34.385 25.8275 -34.385 25.8275 -33.375 24.3125 C-33.1275 23.19875 -32.88 22.085 -32.625 20.9375 C-31.32449377 17.16603193 -30.17060659 15.99500478 -27.0078125 13.703125 C-25.06727697 12.0504201 -23.89906162 10.25035044 -22.5 8.125 C-20.31213137 5.04812934 -18.88780915 3.78309167 -15.1875 2.9375 C-13.929375 2.73125 -12.67125 2.525 -11.375 2.3125 C-7.55898858 -0.23150761 -4.42085144 -0.01866914 0 0 Z M-8.375 7.3125 C-8.705 8.3025 -9.035 9.2925 -9.375 10.3125 C-8.055 11.6325 -6.735 12.9525 -5.375 14.3125 C-4.37282936 10.72922247 -4.37282936 10.72922247 -5.375 7.3125 C-6.365 7.3125 -7.355 7.3125 -8.375 7.3125 Z M3.625 7.3125 C3.295 8.6325 2.965 9.9525 2.625 11.3125 C3.945 11.6425 5.265 11.9725 6.625 12.3125 C6.955 10.9925 7.285 9.6725 7.625 8.3125 C6.305 7.9825 4.985 7.6525 3.625 7.3125 Z M-17.375 11.3125 C-17.705 12.9625 -18.035 14.6125 -18.375 16.3125 C-17.055 16.3125 -15.735 16.3125 -14.375 16.3125 C-14.705 14.6625 -15.035 13.0125 -15.375 11.3125 C-16.035 11.3125 -16.695 11.3125 -17.375 11.3125 Z M12.625 11.3125 C12.955 12.9625 13.285 14.6125 13.625 16.3125 C14.945 15.6525 16.265 14.9925 17.625 14.3125 C17.295 13.3225 16.965 12.3325 16.625 11.3125 C15.305 11.3125 13.985 11.3125 12.625 11.3125 Z M-24.375 19.3125 C-24.705 20.6325 -25.035 21.9525 -25.375 23.3125 C-24.385 23.6425 -23.395 23.9725 -22.375 24.3125 C-22.045 22.6625 -21.715 21.0125 -21.375 19.3125 C-22.365 19.3125 -23.355 19.3125 -24.375 19.3125 Z M3.625 19.3125 C4.625 21.3125 4.625 21.3125 4.625 21.3125 Z M19.625 19.3125 C19.625 20.6325 19.625 21.9525 19.625 23.3125 C20.945 22.9825 22.265 22.6525 23.625 22.3125 C23.295 21.3225 22.965 20.3325 22.625 19.3125 C21.635 19.3125 20.645 19.3125 19.625 19.3125 Z M-6.375 20.3125 C-5.375 22.3125 -5.375 22.3125 -5.375 22.3125 Z M8.625 24.3125 C9.625 26.3125 9.625 26.3125 9.625 26.3125 Z M-9.375 26.3125 C-9.045 27.3025 -8.715 28.2925 -8.375 29.3125 C-8.375 28.3225 -8.375 27.3325 -8.375 26.3125 C-8.705 26.3125 -9.035 26.3125 -9.375 26.3125 Z M6.625 27.3125 C6.295 28.9625 5.965 30.6125 5.625 32.3125 C6.285 31.6525 6.945 30.9925 7.625 30.3125 C7.295 29.3225 6.965 28.3325 6.625 27.3125 Z M20.625 27.3125 C20.625 27.6425 20.625 27.9725 20.625 28.3125 C23.595 28.8075 23.595 28.8075 26.625 29.3125 C26.625 28.6525 26.625 27.9925 26.625 27.3125 C24.645 27.3125 22.665 27.3125 20.625 27.3125 Z M17.625 28.3125 C17.295 28.9725 16.965 29.6325 16.625 30.3125 C17.945 29.6525 19.265 28.9925 20.625 28.3125 C19.635 28.3125 18.645 28.3125 17.625 28.3125 Z M14.625 30.3125 C12.06250025 32.62482422 12.06250025 32.62482422 9.625 35.3125 C9.625 36.3025 9.625 37.2925 9.625 38.3125 C11.935 36.0025 14.245 33.6925 16.625 31.3125 C15.965 30.9825 15.305 30.6525 14.625 30.3125 Z " fill="#2A80C8" transform="translate(119.375,13.6875)"/>
<path d="M0 0 C1.16015625 -0.020625 2.3203125 -0.04125 3.515625 -0.0625 C11.41382833 -0.09783872 18.32480162 0.96099396 25.875 3.25 C27.12152344 3.61480469 28.36804688 3.97960937 29.65234375 4.35546875 C45.95821432 9.93856658 61.55832879 20.22032393 71.875 34.25 C71.875 35.24 71.875 36.23 71.875 37.25 C67.83757506 35.79533955 64.47624073 33.82280027 60.875 31.5 C50.25129527 24.80755418 38.85752831 19.27677024 26.375 17.375 C22.49627386 16.74818928 19.90199006 15.83725476 16.625 13.6875 C9.39100383 9.3907115 0.71970978 9.17103647 -7.30859375 11.17578125 C-10.91584187 12.1959165 -14.45876426 13.39300765 -18.01074219 14.58886719 C-20.71112132 15.43328135 -23.43523512 16.03129434 -26.19897461 16.62768555 C-40.59823107 19.77625225 -53.54244826 27.35799091 -65.625 35.625 C-68.125 37.25 -68.125 37.25 -70.125 37.25 C-68.65789058 32.40853891 -65.7737256 28.69051028 -62.125 25.25 C-61.465 25.25 -60.805 25.25 -60.125 25.25 C-59.91359375 24.67894531 -59.7021875 24.10789062 -59.484375 23.51953125 C-52.56570414 11.96853191 -31.18205576 4.47214421 -19.125 1.25 C-12.73505835 0.03015287 -6.48662193 0.02826415 0 0 Z " fill="#FB932E" transform="translate(118.125,2.75)"/>
<path d="M0 0 C2.25 2.0625 2.25 2.0625 3.25 4.0625 C3.29165763 6.06206611 3.29165763 8.06293389 3.25 10.0625 C3.25 10.7225 3.25 11.3825 3.25 12.0625 C7.1536874 8.59255564 9.61588975 4.51025994 12.25 0.0625 C13.57 0.3925 14.89 0.7225 16.25 1.0625 C16.56440578 6.30259642 16.18847184 9.65479224 13.25 14.0625 C9.99040931 16.81504325 8.15137718 17.99573132 3.875 18.3125 C3.00875 18.23 2.1425 18.1475 1.25 18.0625 C0.92 17.0725 0.59 16.0825 0.25 15.0625 C-0.41 15.3925 -1.07 15.7225 -1.75 16.0625 C-0.945625 16.990625 -0.14125 17.91875 0.6875 18.875 C4.70538224 23.51101797 4.58855411 28.05339948 4.53125 33.984375 C3.99132931 39.89350705 1.43271254 43.57652783 -2.1875 48.125 C-4.75 50.0625 -4.75 50.0625 -7.1796875 49.90234375 C-11.75029484 48.40890822 -14.15559602 44.97406293 -16.75 41.0625 C-19.91562949 34.11355721 -18.33470752 27.26682418 -16.75 20.0625 C-17.33523437 19.94777344 -17.92046875 19.83304688 -18.5234375 19.71484375 C-22.46529938 18.55994737 -25.21237772 16.25684363 -27.75 13.0625 C-28.95065496 9.768266 -29.59874602 6.56655046 -29.75 3.0625 C-29.42 2.4025 -29.09 1.7425 -28.75 1.0625 C-27.1 1.0625 -25.45 1.0625 -23.75 1.0625 C-22.88375 2.67125 -22.88375 2.67125 -22 4.3125 C-20.26624176 7.3651529 -18.3865092 9.70847393 -15.75 12.0625 C-15.95625 11.175625 -16.1625 10.28875 -16.375 9.375 C-16.86122477 5.08001454 -16.0242544 2.68427833 -13.375 -0.6875 C-8.86658124 -4.15551443 -4.41730304 -3.11219078 0 0 Z " fill="#4D9521" transform="translate(126.75,57.9375)"/>
<path d="M0 0 C15.86621373 0.27651749 38.43866491 7.70233679 50.05102539 19.31469727 C54.64619777 19.21896451 57.35099825 18.32698264 61.11352539 15.68969727 C77.45421516 4.23748275 96.11220688 -1.36486627 116.05102539 0.31469727 C117.04102539 0.80969727 117.04102539 0.80969727 118.05102539 1.31469727 C118.05102539 4.28469727 118.05102539 7.25469727 118.05102539 10.31469727 C115.59589793 11.54226099 114.16564142 11.3473803 111.42602539 11.25219727 C91.843719 11.12454207 74.03714505 15.76137128 57.05102539 25.31469727 C56.55602539 25.80969727 56.55602539 25.80969727 56.05102539 26.31469727 C50.71812054 26.91160561 47.94221696 25.39276561 43.48852539 22.56469727 C36.94560321 18.58227711 30.49249769 16.21016662 23.05102539 14.31469727 C22.30079102 14.10200195 21.55055664 13.88930664 20.77758789 13.67016602 C11.96347349 11.24889744 3.28240292 11.23191244 -5.78881836 11.37719727 C-8.94897461 11.31469727 -8.94897461 11.31469727 -10.94897461 10.31469727 C-10.97586677 8.83562835 -10.99532082 7.35642244 -11.01147461 5.87719727 C-11.02307617 5.05348633 -11.03467773 4.22977539 -11.04663086 3.38110352 C-10.80558464 -1.71943445 -3.89551148 0.00368312 0 0 Z " fill="#1A4FA6" transform="translate(66.948974609375,98.685302734375)"/>
<path d="M0 0 C1.134375 0.020625 2.26875 0.04125 3.4375 0.0625 C4.58404482 2.35558963 4.63479117 3.86159656 4.75390625 6.4140625 C4.81674805 7.69023438 4.81674805 7.69023438 4.88085938 8.9921875 C4.92017578 9.88164063 4.95949219 10.77109375 5 11.6875 C5.04318359 12.5846875 5.08636719 13.481875 5.13085938 14.40625 C5.23706861 16.62484283 5.33911194 18.8435488 5.4375 21.0625 C5.83219482 20.56298828 6.22688965 20.06347656 6.63354492 19.54882812 C7.16052979 18.90365234 7.68751465 18.25847656 8.23046875 17.59375 C8.74891357 16.94986328 9.2673584 16.30597656 9.80151367 15.64257812 C11.4375 14.0625 11.4375 14.0625 14.75 13.5625 C17.4375 14.0625 17.4375 14.0625 18.4375 15.0625 C18.875 17.25 18.875 17.25 18.4375 20.0625 C16.63851102 22.29681284 14.60290199 24.18710721 12.4375 26.0625 C14.21695087 30.10670651 16.83279673 33.52328487 19.4375 37.0625 C20.0975 36.0725 20.7575 35.0825 21.4375 34.0625 C25.0675 34.3925 28.6975 34.7225 32.4375 35.0625 C32.4375 34.4025 32.4375 33.7425 32.4375 33.0625 C31.550625 32.794375 30.66375 32.52625 29.75 32.25 C22.17313218 29.53376437 22.17313218 29.53376437 20.4375 26.0625 C20.0625 22.75 20.0625 22.75 20.4375 19.0625 C22.97887159 15.90295695 24.58372659 14.34709114 28.4375 13.0625 C33.47165457 12.68959966 36.32792374 13.07371727 40.4375 16.0625 C39.9425 18.5375 39.9425 18.5375 39.4375 21.0625 C35.74331799 22.293894 33.2318739 21.70682764 29.4375 21.0625 C31.02530066 24.23810132 34.11475771 24.69858773 37.30859375 25.96484375 C39.4375 27.0625 39.4375 27.0625 41.4375 30.0625 C41.9951332 34.36424187 41.94128727 36.33830581 39.4375 39.9375 C33.82455174 43.91333835 28.16060623 43.23038483 21.67578125 42.30078125 C19.42769331 42.06145601 17.37608925 42.15797254 15.125 42.3125 C11.4375 42.0625 11.4375 42.0625 9.0625 39.75 C8.52625 38.863125 7.99 37.97625 7.4375 37.0625 C6.7775 36.0725 6.1175 35.0825 5.4375 34.0625 C5.2209375 35.7640625 5.2209375 35.7640625 5 37.5 C4.4375 41.0625 4.4375 41.0625 3.4375 42.0625 C0.76691149 42.20365161 -1.88682238 42.10497107 -4.5625 42.0625 C-4.58714638 36.24178378 -4.6053343 30.42109766 -4.61743164 24.6003418 C-4.62247267 22.61856559 -4.62930538 20.63679311 -4.63793945 18.6550293 C-4.65001515 15.81297891 -4.65573045 12.97097753 -4.66015625 10.12890625 C-4.66531754 9.23724258 -4.67047882 8.34557892 -4.67579651 7.42689514 C-4.67599177 5.30509399 -4.6246003 3.1833922 -4.5625 1.0625 C-3.5625 0.0625 -3.5625 0.0625 0 0 Z " fill="#2E69AA" transform="translate(398.5625,51.9375)"/>
<path d="M0 0 C3.55410006 0.86483101 5.21403929 2.68489799 7.34375 5.5703125 C8.91830739 8.71942729 8.69174118 11.09040066 8.34375 14.5703125 C6.92442853 17.08563511 5.48134113 18.53214421 3.34375 20.5703125 C2.35375 20.5703125 1.36375 20.5703125 0.34375 20.5703125 C2.32375 23.5403125 4.30375 26.5103125 6.34375 29.5703125 C7.87 29.2196875 9.39625 28.8690625 10.96875 28.5078125 C15.06604746 27.67554895 18.23929462 27.49019266 22.34375 28.5703125 C21.84875 31.0453125 21.84875 31.0453125 21.34375 33.5703125 C20.36277344 33.60769531 19.38179687 33.64507812 18.37109375 33.68359375 C2.18861265 34.41373694 -10.67040534 37.38729034 -24.65625 45.5703125 C-25.9822444 46.25145938 -27.31176664 46.92642841 -28.65625 47.5703125 C-28.43571472 38.68875541 -26.42695706 28.09008777 -20.15625 21.3828125 C-17.70623366 19.60655065 -15.53773059 18.47592068 -12.65625 17.5703125 C-12.98625 16.5803125 -13.31625 15.5903125 -13.65625 14.5703125 C-14.26105171 10.07749976 -13.90691359 7.27915658 -11.28125 3.6328125 C-7.87483035 0.04838517 -4.81864158 -0.33382156 0 0 Z " fill="#FAB417" transform="translate(162.65625,50.4296875)"/>
<path d="M0 0 C2.8125 0.875 2.8125 0.875 4.8125 2.875 C4.9375 6.5 4.9375 6.5 4.8125 9.875 C6.05 9.936875 7.2875 9.99875 8.5625 10.0625 C11.74113124 10.48594111 12.75049128 10.82660295 15.375 12.875 C16.96734569 16.19815622 16.79894836 16.86722948 16.125 20.3125 C15.65043952 22.64628043 15.65043952 22.64628043 15.8125 24.875 C17.3477715 26.67063918 19.0450412 27.84504474 20.95703125 29.2265625 C26.59688054 34.23712335 27.35433419 42.77342987 27.8125 49.875 C23.54271704 49.29842347 20.69394688 47.77685955 17.0625 45.5 C8.27376561 40.26324495 0.95301133 38.49638727 -9.1875 37.875 C-11.58351907 37.68988862 -13.97935435 37.50238288 -16.375 37.3125 C-18.31244176 37.16589498 -20.24992096 37.01977936 -22.1875 36.875 C-22.5175 35.225 -22.8475 33.575 -23.1875 31.875 C-21.29198978 31.82058344 -19.3960208 31.78201965 -17.5 31.75 C-16.44425781 31.72679688 -15.38851562 31.70359375 -14.30078125 31.6796875 C-11.16498141 31.87641271 -9.01104627 32.54442346 -6.1875 33.875 C-6.105 33.2975 -6.0225 32.72 -5.9375 32.125 C-4.98218987 29.2590696 -3.40280827 27.8759236 -1.1875 25.875 C-1.5175 25.215 -1.8475 24.555 -2.1875 23.875 C-2.25746014 22.16797265 -2.27190154 20.45831997 -2.25 18.75 C-2.24097656 17.83992188 -2.23195313 16.92984375 -2.22265625 15.9921875 C-2.21105469 15.29351562 -2.19945313 14.59484375 -2.1875 13.875 C-2.97125 13.75125 -3.755 13.6275 -4.5625 13.5 C-7.1875 12.875 -7.1875 12.875 -9.1875 10.875 C-9.11008443 6.69455916 -8.78251122 4.55501282 -6 1.375 C-3.1875 -0.125 -3.1875 -0.125 0 0 Z " fill="#F2661B" transform="translate(78.1875,47.125)"/>
<path d="M0 0 C2.83203125 0.03255208 5.6640625 0.06510417 8.49609375 0.09765625 C8.72973633 0.74742432 8.96337891 1.39719238 9.20410156 2.06665039 C11.04327673 7.15596754 12.91718503 12.2287798 14.85546875 17.28125 C15.44521484 18.82522461 15.44521484 18.82522461 16.046875 20.40039062 C16.8574758 22.5193064 17.67270542 24.63645629 18.4921875 26.75195312 C18.88019531 27.77224609 19.26820313 28.79253906 19.66796875 29.84375 C20.19535645 31.21551392 20.19535645 31.21551392 20.73339844 32.61499023 C21.49609375 35.09765625 21.49609375 35.09765625 21.49609375 39.09765625 C18.19609375 39.09765625 14.89609375 39.09765625 11.49609375 39.09765625 C10.23944397 36.19165364 9.49609375 34.30161041 9.49609375 31.09765625 C3.06109375 31.59265625 3.06109375 31.59265625 -3.50390625 32.09765625 C-4.49390625 34.40765625 -5.48390625 36.71765625 -6.50390625 39.09765625 C-9.47390625 39.09765625 -12.44390625 39.09765625 -15.50390625 39.09765625 C-16.61108003 35.77613491 -16.47115195 35.31219541 -15.28125 32.2109375 C-14.99266113 31.44442871 -14.70407227 30.67791992 -14.40673828 29.88818359 C-14.08817871 29.07043457 -13.76961914 28.25268555 -13.44140625 27.41015625 C-12.96356689 26.15259521 -12.96356689 26.15259521 -12.47607422 24.86962891 C-11.81643334 23.13426598 -11.15330622 21.4002245 -10.48681641 19.66748047 C-9.55236374 17.22434862 -8.63869073 14.77473722 -7.734375 12.3203125 C-7.46310791 11.58578857 -7.19184082 10.85126465 -6.91235352 10.09448242 C-6.39762856 8.70044235 -5.88376711 7.30608307 -5.37084961 5.91137695 C-3.21221686 0.12528147 -3.21221686 0.12528147 0 0 Z M1.49609375 13.09765625 C1.13493329 14.57513085 0.78234327 16.054703 0.43359375 17.53515625 C0.13775391 18.77072266 0.13775391 18.77072266 -0.1640625 20.03125 C-0.27621094 20.71316406 -0.38835937 21.39507812 -0.50390625 22.09765625 C0.5625449 23.39399246 0.5625449 23.39399246 3.05859375 23.16015625 C3.86296875 23.13953125 4.66734375 23.11890625 5.49609375 23.09765625 C5.03786907 19.62824079 4.60477692 16.42370576 3.49609375 13.09765625 C2.83609375 13.09765625 2.17609375 13.09765625 1.49609375 13.09765625 Z " fill="#28A452" transform="translate(511.50390625,54.90234375)"/>
<path d="M0 0 C2.33302989 0.03762951 4.66713319 0.04665734 7 0 C9.27376292 4.96093728 10.78623966 9.67812773 12 15 C12.19335938 14.41992188 12.38671875 13.83984375 12.5859375 13.2421875 C14.05729167 8.828125 15.52864583 4.4140625 17 0 C19.64 0 22.28 0 25 0 C25.48294801 6.41003721 23.77174373 11.40009816 21.5625 17.375 C21.23701172 18.28894531 20.91152344 19.20289062 20.57617188 20.14453125 C18.16565041 26.83434959 18.16565041 26.83434959 17 28 C15.0390625 28.23828125 15.0390625 28.23828125 12.625 28.3125 C11.43777344 28.36857422 11.43777344 28.36857422 10.2265625 28.42578125 C8 28 8 28 6.375 26.4921875 C4.48841333 23.07274916 3.45249913 19.55381642 2.375 15.8125 C1.3293466 11.03430775 1.3293466 11.03430775 -1 7 C-1.33 7.66 -1.66 8.32 -2 9 C-4.64860427 9.59355614 -7.29197322 9.74209269 -10 10 C-10.06058594 11.21558594 -10.12117188 12.43117188 -10.18359375 13.68359375 C-10.26798332 15.26824228 -10.3526321 16.85287702 -10.4375 18.4375 C-10.49647461 19.64116211 -10.49647461 19.64116211 -10.55664062 20.86914062 C-10.88671875 26.88671875 -10.88671875 26.88671875 -12 28 C-14.67058851 28.14115161 -17.32432238 28.04247107 -20 28 C-20.02886338 23.52084672 -20.04675187 19.04171709 -20.0625 14.5625 C-20.07087891 13.28310547 -20.07925781 12.00371094 -20.08789062 10.68554688 C-20.09111328 9.47060547 -20.09433594 8.25566406 -20.09765625 7.00390625 C-20.10289307 5.87799072 -20.10812988 4.7520752 -20.11352539 3.59204102 C-20 1 -20 1 -19 0 C-14.96839809 -0.26293056 -13.44107266 -0.29404844 -10 2 C-9.46375 1.484375 -8.9275 0.96875 -8.375 0.4375 C-5.15620586 -1.5107175 -3.62232471 -0.78128572 0 0 Z " fill="#3671B2" transform="translate(280,66)"/>
<path d="M0 0 C0 1.98 0 3.96 0 6 C-3.14068723 7.87867592 -5.02419073 8.16692782 -8.625 7.625 C-9.40101563 7.51414062 -10.17703125 7.40328125 -10.9765625 7.2890625 C-11.64429688 7.19367187 -12.31203125 7.09828125 -13 7 C-13.66 7 -14.32 7 -15 7 C-14.34696536 9.47662257 -14.34696536 9.47662257 -13 12 C-10.78824724 13.24252514 -10.78824724 13.24252514 -8.1875 13.9375 C-3.07158973 15.79581183 -0.74300338 17.2454608 2 22 C2.78586449 25.92161789 2.38759665 29.12790753 0.75 32.8125 C-2.38689607 36.73362009 -4.98956026 38.41739073 -10 39 C-15.06412476 39.28134026 -19.25477156 38.8608739 -24 37 C-25.5625 35.1875 -25.5625 35.1875 -26 33 C-25.125 30.25 -25.125 30.25 -24 28 C-23.01 28.165 -22.02 28.33 -21 28.5 C-16.97267058 29.08474517 -13.06525377 29.07132024 -9 29 C-9.12200992 26.55185263 -9.12200992 26.55185263 -10 24 C-12.15706311 22.66999198 -12.15706311 22.66999198 -14.8125 21.9375 C-19.56677014 20.25992182 -22.67416695 18.65166611 -25 14 C-25.39962781 8.8048385 -25.03492311 5.3076328 -22 1 C-15.41255559 -3.03312923 -6.95479654 -3.70922482 0 0 Z " fill="#2C68AB" transform="translate(230,56)"/>
<path d="M0 0 C3 0.25 3 0.25 5 2.25 C5.4140625 5.2890625 5.4140625 5.2890625 5.625 8.875 C5.69976562 10.06351563 5.77453125 11.25203125 5.8515625 12.4765625 C5.92503906 13.84941406 5.92503906 13.84941406 6 15.25 C6.87978516 14.75113281 6.87978516 14.75113281 7.77734375 14.2421875 C11.14088229 12.74071336 13.49445943 13.35768058 17 14.25 C20.04213496 17.19073046 20.88330713 20.28185366 21.12939453 24.43237305 C21.13052246 25.20105713 21.13165039 25.96974121 21.1328125 26.76171875 C21.13474609 28.02145508 21.13474609 28.02145508 21.13671875 29.30664062 C21.13285156 30.17482422 21.12898438 31.04300781 21.125 31.9375 C21.13080078 33.25717773 21.13080078 33.25717773 21.13671875 34.60351562 C21.13542969 35.43947266 21.13414062 36.27542969 21.1328125 37.13671875 C21.13168457 37.90201904 21.13055664 38.66731934 21.12939453 39.45581055 C21 41.25 21 41.25 20 42.25 C17.32941149 42.39115161 14.67567762 42.29247107 12 42.25 C10.8517315 39.953463 10.88438825 38.66686833 10.90234375 36.1171875 C10.90556641 35.31152344 10.90878906 34.50585938 10.91210938 33.67578125 C10.92048828 32.83402344 10.92886719 31.99226563 10.9375 31.125 C10.94201172 30.27550781 10.94652344 29.42601563 10.95117188 28.55078125 C10.96297126 26.45049091 10.98090694 24.3502367 11 22.25 C9.35 22.91 7.7 23.57 6 24.25 C5.93941406 25.46558594 5.87882812 26.68117188 5.81640625 27.93359375 C5.73201668 29.51824228 5.6473679 31.10287702 5.5625 32.6875 C5.50352539 33.89116211 5.50352539 33.89116211 5.44335938 35.11914062 C5.11328125 41.13671875 5.11328125 41.13671875 4 42.25 C1.32941149 42.39115161 -1.32432238 42.29247107 -4 42.25 C-4.82104421 33.17505216 -5.18248037 24.17313209 -5.1875 15.0625 C-5.19974609 13.85013672 -5.21199219 12.63777344 -5.22460938 11.38867188 C-5.22654297 10.23560547 -5.22847656 9.08253906 -5.23046875 7.89453125 C-5.23457764 6.85659424 -5.23868652 5.81865723 -5.24291992 4.74926758 C-4.86983853 0.91084125 -3.76551586 0.31379299 0 0 Z " fill="#3570B0" transform="translate(358,51.75)"/>
<path d="M0 0 C3.5 0.125 3.5 0.125 4.5 1.125 C4.73653523 3.65096259 4.92173692 6.15607207 5.0625 8.6875 C5.10568359 9.39841797 5.14886719 10.10933594 5.19335938 10.84179688 C5.29971777 12.60261912 5.40038846 14.3637832 5.5 16.125 C6.26183594 15.63128906 7.02367187 15.13757813 7.80859375 14.62890625 C10.5 13.125 10.5 13.125 13.5625 13.0625 C16.72272067 14.20555854 17.91755645 15.32849398 19.69067383 18.14819336 C21.36212378 22.2307666 20.94539378 26.59925636 20.8125 30.9375 C20.80283203 31.90365234 20.79316406 32.86980469 20.78320312 33.86523438 C20.66858817 40.95641183 20.66858817 40.95641183 19.5 42.125 C16 42.25 16 42.25 12.5 42.125 C10.98578999 40.61078999 11.28690144 39.20027232 11.18359375 37.08984375 C11.14169922 36.28095703 11.09980469 35.47207031 11.05664062 34.63867188 C11.01732422 33.78853516 10.97800781 32.93839844 10.9375 32.0625 C10.89431641 31.20849609 10.85113281 30.35449219 10.80664062 29.47460938 C10.70023298 27.35827963 10.59958269 25.24166187 10.5 23.125 C8.85 23.455 7.2 23.785 5.5 24.125 C5.17 30.065 4.84 36.005 4.5 42.125 C1.86 42.125 -0.78 42.125 -3.5 42.125 C-5.39623202 40.22876798 -4.62897626 37.46129641 -4.63894653 34.9387207 C-4.6369223 34.07206787 -4.63489807 33.20541504 -4.6328125 32.3125 C-4.63376923 31.42844482 -4.63472595 30.54438965 -4.63571167 29.63354492 C-4.63639351 27.76057871 -4.63453893 25.88761014 -4.63037109 24.01464844 C-4.62502289 21.13731612 -4.63031593 18.26013992 -4.63671875 15.3828125 C-4.63605797 13.56770799 -4.63477681 11.75260357 -4.6328125 9.9375 C-4.63483673 9.07084717 -4.63686096 8.20419434 -4.63894653 7.3112793 C-4.61070013 0.16466786 -4.61070013 0.16466786 0 0 Z " fill="#1B5DA5" transform="translate(446.5,51.875)"/>
<path d="M0 0 C0.66 0 1.32 0 2 0 C2 7.59 2 15.18 2 23 C2.99 23 3.98 23 5 23 C4.896875 22.071875 4.79375 21.14375 4.6875 20.1875 C4.8421875 18.6096875 4.8421875 18.6096875 5 17 C7.5 15.125 7.5 15.125 10 14 C11.04449911 17.13349732 10.93423645 17.98968256 10 21 C9.34 21 8.68 21 8 21 C8 23.64 8 26.28 8 29 C1.565 29.495 1.565 29.495 -5 30 C-3.68 30.66 -2.36 31.32 -1 32 C-1.33 32.99 -1.66 33.98 -2 35 C-4.1875 35.75 -4.1875 35.75 -7 36 C-10.16995368 34.01877895 -12.29909661 31.66404535 -14.5625 28.75 C-15.366875 27.8425 -16.17125 26.935 -17 26 C-18.32 26 -19.64 26 -21 26 C-21.33 27.32 -21.66 28.64 -22 30 C-27.35315985 30.35687732 -27.35315985 30.35687732 -29.8125 29 C-31.64047397 25.921307 -32.15103549 22.56731447 -32 19 C-31.01 17.515 -31.01 17.515 -30 16 C-29.9175 15.175 -29.835 14.35 -29.75 13.5 C-29 11 -29 11 -25.9375 9.1875 C-24.968125 8.795625 -23.99875 8.40375 -23 8 C-22.855625 9.093125 -22.71125 10.18625 -22.5625 11.3125 C-22.11711896 14.93122987 -22.11711896 14.93122987 -21 18 C-18.98491642 18.73323796 -18.98491642 18.73323796 -17 19 C-17.33 18.01 -17.66 17.02 -18 16 C-17.5625 13.3125 -17.5625 13.3125 -17 11 C-12.71193127 11.47645208 -10.73352513 12.65902484 -8 16 C-8 16.66 -8 17.32 -8 18 C-7.34 18 -6.68 18 -6 18 C-5.34 20.31 -4.68 22.62 -4 25 C-3.34 25 -2.68 25 -2 25 C-2 24.03578125 -2 23.0715625 -2 22.078125 C-2 6.5 -2 6.5 0 0 Z " fill="#0B57AE" transform="translate(116,22)"/>
<path d="M0 0 C3.06462617 2.38359813 5.04722646 4.27723908 5.59057617 8.22363281 C5.57486572 9.12436523 5.55915527 10.02509766 5.54296875 10.953125 C5.53330078 11.9328125 5.52363281 12.9125 5.51367188 13.921875 C5.48853516 14.93765625 5.46339844 15.9534375 5.4375 17 C5.41719727 18.546875 5.41719727 18.546875 5.39648438 20.125 C5.36117607 22.66719792 5.31186036 25.20833223 5.25 27.75 C1.58333333 27.75 -2.08333333 27.75 -5.75 27.75 C-7.1421875 28.0903125 -7.1421875 28.0903125 -8.5625 28.4375 C-12.54067592 28.82751725 -14.40632009 27.84951995 -17.75 25.75 C-19.31935594 22.61128812 -19.10201103 20.21144178 -18.75 16.75 C-16.875 13.875 -16.875 13.875 -13.75 11.75 C-10.4156239 11.06276218 -7.14965309 10.82261395 -3.75 10.75 C-4.08 9.76 -4.41 8.77 -4.75 7.75 C-5.53246094 7.76160156 -6.31492188 7.77320312 -7.12109375 7.78515625 C-8.13300781 7.79417969 -9.14492187 7.80320312 -10.1875 7.8125 C-11.19683594 7.82410156 -12.20617187 7.83570312 -13.24609375 7.84765625 C-15.75 7.75 -15.75 7.75 -16.75 6.75 C-16.79063832 5.08382885 -16.792721 3.41611905 -16.75 1.75 C-11.01644132 -1.05827364 -6.19466326 -2.81575603 0 0 Z M-8.75 16.75 C-9.08 18.07 -9.41 19.39 -9.75 20.75 C-8.1 20.75 -6.45 20.75 -4.75 20.75 C-4.42 19.43 -4.09 18.11 -3.75 16.75 C-5.4 16.75 -7.05 16.75 -8.75 16.75 Z " fill="#336FB0" transform="translate(251.75,66.25)"/>
<path d="M0 0 C3.26946243 4.47725353 3.08966864 8.3830268 3.1484375 13.80078125 C3.18195313 14.76306641 3.21546875 15.72535156 3.25 16.71679688 C3.44783015 23.76449595 3.44783015 23.76449595 2.2734375 26.11328125 C-1.05989583 26.11328125 -4.39322917 26.11328125 -7.7265625 26.11328125 C-9.11875 26.45359375 -9.11875 26.45359375 -10.5390625 26.80078125 C-14.56650657 27.19562871 -16.37768583 26.32049542 -19.7265625 24.11328125 C-21.72883695 21.58867434 -21.73654315 20.35281694 -21.6015625 17.11328125 C-20.53670893 13.46235473 -19.91805784 12.21499769 -16.7265625 10.11328125 C-13.39973632 9.49178625 -10.10560224 9.24225223 -6.7265625 9.11328125 C-7.0565625 8.12328125 -7.3865625 7.13328125 -7.7265625 6.11328125 C-11.3565625 6.11328125 -14.9865625 6.11328125 -18.7265625 6.11328125 C-19.0565625 4.13328125 -19.3865625 2.15328125 -19.7265625 0.11328125 C-13.69973148 -3.9046061 -6.01412759 -4.16163843 0 0 Z M-10.7265625 15.11328125 C-11.0565625 16.43328125 -11.3865625 17.75328125 -11.7265625 19.11328125 C-10.0765625 18.78328125 -8.4265625 18.45328125 -6.7265625 18.11328125 C-6.7265625 17.12328125 -6.7265625 16.13328125 -6.7265625 15.11328125 C-8.0465625 15.11328125 -9.3665625 15.11328125 -10.7265625 15.11328125 Z " fill="#2665AA" transform="translate(325.7265625,67.88671875)"/>
<path d="M0 0 C2.45243461 1.90063682 3.62927427 3.25854855 5 6 C5.08426094 7.6674606 5.10725143 9.33825187 5.09765625 11.0078125 C5.09443359 11.99394531 5.09121094 12.98007813 5.08789062 13.99609375 C5.07951172 15.02863281 5.07113281 16.06117187 5.0625 17.125 C5.05798828 18.16527344 5.05347656 19.20554687 5.04882812 20.27734375 C5.03701952 22.85161962 5.02055075 25.42578146 5 28 C-1.75 28.125 -1.75 28.125 -4 27 C-5.093125 27.350625 -6.18625 27.70125 -7.3125 28.0625 C-11.31534302 29.08017195 -12.51133955 29.03505193 -16 27 C-17.8125 25.8125 -17.8125 25.8125 -19 24 C-19.5 20.625 -19.5 20.625 -19 17 C-16.45862841 13.84045695 -14.85377341 12.28459114 -11 11 C-8.66700175 10.96045766 -6.33291811 10.95598268 -4 11 C-4.33 10.01 -4.66 9.02 -5 8 C-8.63 8 -12.26 8 -16 8 C-16.33 6.02 -16.66 4.04 -17 2 C-11.07146938 -0.69478665 -6.38920468 -1.88657619 0 0 Z M-9 17 C-9 18.32 -9 19.64 -9 21 C-7.35 20.67 -5.7 20.34 -4 20 C-4 19.01 -4 18.02 -4 17 C-5.65 17 -7.3 17 -9 17 Z " fill="#326DAD" transform="translate(487,66)"/>
<path d="M0 0 C1.51987588 -0.08256871 3.04112785 -0.13988627 4.5625 -0.1875 C5.83287109 -0.23970703 5.83287109 -0.23970703 7.12890625 -0.29296875 C13.87148158 0.39504914 19.19027091 4.2442929 24.625 8 C25.90814354 8.87604177 27.1919832 9.7510649 28.4765625 10.625 C29.37604614 11.2439917 29.37604614 11.2439917 30.29370117 11.87548828 C31.80120551 12.86898735 33.37985691 13.75264922 34.96484375 14.6171875 C35.97224609 15.30167969 35.97224609 15.30167969 37 16 C36.979375 17.03125 36.95875 18.0625 36.9375 19.125 C37.01645861 24.02043351 38.72002272 26.06707516 41.58984375 29.88671875 C42.98387819 31.97583962 43.56280679 33.54839759 44 36 C41 37 41 37 38 36 C36.74609375 34.328125 36.74609375 34.328125 35.4375 32.25 C31.82819426 27.25044316 27.55513252 25.38309492 22 23 C11.1244597 18.12369692 11.1244597 18.12369692 9 13 C6.91859116 8.36413486 5.02429625 6.07117345 1 3 C0.67 2.01 0.34 1.02 0 0 Z " fill="#DEE2E0" transform="translate(143,23)"/>
<path d="M0 0 C0.75732422 0.00644531 1.51464844 0.01289063 2.29492188 0.01953125 C3.47344727 0.04466797 3.47344727 0.04466797 4.67578125 0.0703125 C5.47306641 0.07933594 6.27035156 0.08835937 7.09179688 0.09765625 C9.05742025 0.12119665 11.022889 0.15706703 12.98828125 0.1953125 C12.98828125 0.5253125 12.98828125 0.8553125 12.98828125 1.1953125 C10.67828125 1.5253125 8.36828125 1.8553125 5.98828125 2.1953125 C5.65828125 3.5153125 5.32828125 4.8353125 4.98828125 6.1953125 C5.97828125 6.8553125 6.96828125 7.5153125 7.98828125 8.1953125 C7.98828125 9.1853125 7.98828125 10.1753125 7.98828125 11.1953125 C8.97828125 11.8553125 9.96828125 12.5153125 10.98828125 13.1953125 C9.66828125 13.5253125 8.34828125 13.8553125 6.98828125 14.1953125 C6.49328125 13.2053125 6.49328125 13.2053125 5.98828125 12.1953125 C5.65828125 18.4653125 5.32828125 24.7353125 4.98828125 31.1953125 C4.32828125 31.1953125 3.66828125 31.1953125 2.98828125 31.1953125 C2.98828125 23.6053125 2.98828125 16.0153125 2.98828125 8.1953125 C2.32828125 8.1953125 1.66828125 8.1953125 0.98828125 8.1953125 C1.02953125 9.1028125 1.07078125 10.0103125 1.11328125 10.9453125 C0.99296569 14.0735171 0.59681045 15.58145256 -1.01171875 18.1953125 C-0.68171875 18.5253125 -0.35171875 18.8553125 -0.01171875 19.1953125 C-0.10203449 21.55226204 -0.25860003 23.90684832 -0.44921875 26.2578125 C-0.55105469 27.54816406 -0.65289062 28.83851562 -0.7578125 30.16796875 C-0.84160156 31.16699219 -0.92539063 32.16601562 -1.01171875 33.1953125 C-1.67171875 33.1953125 -2.33171875 33.1953125 -3.01171875 33.1953125 C-5.01171875 28.4453125 -5.01171875 28.4453125 -5.01171875 26.1953125 C-5.67171875 26.1953125 -6.33171875 26.1953125 -7.01171875 26.1953125 C-8.2474048 24.66696397 -9.48199366 23.13765868 -10.703125 21.59765625 C-12.3292037 19.85508236 -13.64575519 19.37056906 -16.01171875 19.1953125 C-16.01171875 21.5053125 -16.01171875 23.8153125 -16.01171875 26.1953125 C-14.69171875 26.8553125 -13.37171875 27.5153125 -12.01171875 28.1953125 C-14.64422263 29.51156444 -15.81350931 28.94344908 -18.63671875 28.2578125 C-19.45398438 28.06316406 -20.27125 27.86851563 -21.11328125 27.66796875 C-21.73976563 27.51199219 -22.36625 27.35601562 -23.01171875 27.1953125 C-22.02171875 26.8653125 -21.03171875 26.5353125 -20.01171875 26.1953125 C-20.67171875 25.2053125 -21.33171875 24.2153125 -22.01171875 23.1953125 C-22.40185591 21.205613 -22.74374524 19.20511381 -23.01171875 17.1953125 C-24.99171875 18.1853125 -24.99171875 18.1853125 -27.01171875 19.1953125 C-25.44477949 15.34918886 -22.95606972 13.07119019 -20.01171875 10.1953125 C-19.24859375 9.1434375 -18.48546875 8.0915625 -17.69921875 7.0078125 C-14.17404892 3.31868128 -11.9523919 3.15157182 -7.01171875 2.1953125 C-3.96490814 0.16410543 -3.41053551 -0.05128625 0 0 Z M-4.01171875 7.1953125 C-4.34171875 8.1853125 -4.67171875 9.1753125 -5.01171875 10.1953125 C-3.69171875 11.5153125 -2.37171875 12.8353125 -1.01171875 14.1953125 C-0.00954811 10.61203497 -0.00954811 10.61203497 -1.01171875 7.1953125 C-2.00171875 7.1953125 -2.99171875 7.1953125 -4.01171875 7.1953125 Z M-13.01171875 11.1953125 C-13.34171875 12.8453125 -13.67171875 14.4953125 -14.01171875 16.1953125 C-12.69171875 16.1953125 -11.37171875 16.1953125 -10.01171875 16.1953125 C-10.34171875 14.5453125 -10.67171875 12.8953125 -11.01171875 11.1953125 C-11.67171875 11.1953125 -12.33171875 11.1953125 -13.01171875 11.1953125 Z M-20.01171875 19.1953125 C-20.34171875 20.5153125 -20.67171875 21.8353125 -21.01171875 23.1953125 C-20.02171875 23.5253125 -19.03171875 23.8553125 -18.01171875 24.1953125 C-17.68171875 22.5453125 -17.35171875 20.8953125 -17.01171875 19.1953125 C-18.00171875 19.1953125 -18.99171875 19.1953125 -20.01171875 19.1953125 Z M-2.01171875 20.1953125 C-1.01171875 22.1953125 -1.01171875 22.1953125 -1.01171875 22.1953125 Z " fill="#2A7BC5" transform="translate(115.01171875,13.8046875)"/>
<path d="M0 0 C2.9375 1.5 2.9375 1.5 5 3 C4.67 4.65 4.34 6.3 4 8 C0.30581799 9.231394 -2.2056261 8.64432764 -6 8 C-4.41219934 11.17560132 -1.32274229 11.63608773 1.87109375 12.90234375 C4 14 4 14 6 17 C6.5576332 21.30174187 6.50378727 23.27580581 4 26.875 C-0.44921802 30.02652943 -4.28281109 30.43036222 -9.515625 29.6015625 C-11.69881951 29.12785048 -13.84914159 28.60243951 -16 28 C-15.67 26.02 -15.34 24.04 -15 22 C-10.74433453 20.83936396 -7.3164922 21.23826608 -3 22 C-3 21.34 -3 20.68 -3 20 C-3.886875 19.731875 -4.77375 19.46375 -5.6875 19.1875 C-13.26436782 16.47126437 -13.26436782 16.47126437 -15 13 C-15.375 9.6875 -15.375 9.6875 -15 6 C-10.56614572 0.48764062 -6.93814728 -0.47849292 0 0 Z " fill="#316DAD" transform="translate(434,65)"/>
<path d="M0 0 C0.86882812 0.07863281 1.73765625 0.15726562 2.6328125 0.23828125 C4.875 0.6875 4.875 0.6875 6.875 2.6875 C6.5 5.3125 6.5 5.3125 5.875 7.6875 C2.29855152 8.9255014 -0.46194766 8.43676071 -4.125 7.6875 C-4.125 8.6775 -4.125 9.6675 -4.125 10.6875 C-3.25875 10.749375 -2.3925 10.81125 -1.5 10.875 C3.00843067 11.96036294 4.70536634 13.29146393 7.875 16.6875 C8.84028677 20.81190709 8.07505363 22.34547283 5.9375 26 C3.06055722 29.10514221 0.29788839 29.59414231 -3.83203125 29.80859375 C-7.19802785 29.63083243 -9.95940549 28.83250227 -13.125 27.6875 C-14.25 22.9375 -14.25 22.9375 -13.125 20.6875 C-9.165 21.0175 -5.205 21.3475 -1.125 21.6875 C-1.125 21.0275 -1.125 20.3675 -1.125 19.6875 C-1.73988281 19.50574219 -2.35476563 19.32398437 -2.98828125 19.13671875 C-3.79652344 18.88535156 -4.60476563 18.63398437 -5.4375 18.375 C-6.23800781 18.13136719 -7.03851563 17.88773438 -7.86328125 17.63671875 C-10.31111043 16.60939148 -11.55103853 15.81932123 -13.125 13.6875 C-13.74799536 10.63987404 -13.6291362 7.75109691 -13.125 4.6875 C-9.65143116 -0.2747412 -5.70872204 -0.5708722 0 0 Z " fill="#3771B0" transform="translate(344.125,65.3125)"/>
<path d="M0 0 C-1.26305273 3.49768449 -2.76784561 6.0535562 -5 9 C-5.33 9.99 -5.66 10.98 -6 12 C-8.71991831 16.07987746 -11.53707 16.48607285 -16.08203125 17.95703125 C-24.02118536 20.79472087 -28.32221218 25.02899429 -32.58203125 32.140625 C-34 34 -34 34 -37.375 35.0625 C-38.24125 35.041875 -39.1075 35.02125 -40 35 C-40.495 33.515 -40.495 33.515 -41 32 C-39.6015625 29.40625 -39.6015625 29.40625 -37.625 26.5 C-34.1354726 21.44242633 -34.1354726 21.44242633 -32.84765625 15.53125 C-32 13 -32 13 -29.12109375 11.15625 C-27.90113787 10.58690381 -26.67263646 10.0356168 -25.4375 9.5 C-21.31455079 7.59136245 -17.2993445 5.69817794 -13.5 3.1875 C-9.19376145 0.39948658 -5.11631748 -1.96781442 0 0 Z " fill="#D4D7D8" transform="translate(92,24)"/>
<path d="M0 0 C2.25 2.0625 2.25 2.0625 3.25 4.0625 C3.29165763 6.06206611 3.29165763 8.06293389 3.25 10.0625 C3.25 10.7225 3.25 11.3825 3.25 12.0625 C7.1536874 8.59255564 9.61588975 4.51025994 12.25 0.0625 C13.57 0.3925 14.89 0.7225 16.25 1.0625 C16.56440578 6.30259642 16.18847184 9.65479224 13.25 14.0625 C9.99040931 16.81504325 8.15137718 17.99573132 3.875 18.3125 C3.00875 18.23 2.1425 18.1475 1.25 18.0625 C0.92 17.0725 0.59 16.0825 0.25 15.0625 C-0.97976562 15.11470703 -0.97976562 15.11470703 -2.234375 15.16796875 C-3.31203125 15.19503906 -4.3896875 15.22210938 -5.5 15.25 C-7.10101563 15.30220703 -7.10101563 15.30220703 -8.734375 15.35546875 C-12.09316234 15.02916169 -13.38920726 14.42883451 -15.75 12.0625 C-16.7602418 8.74313407 -16.93436196 6.72313037 -16 3.375 C-14.37718911 0.37279986 -13.0828088 -1.40437648 -9.875 -2.6875 C-5.76308816 -3.17125433 -3.38615394 -2.38569937 0 0 Z " fill="#4F9A1F" transform="translate(126.75,57.9375)"/>
<path d="M0 0 C3.3 0 6.6 0 10 0 C10 12.87 10 25.74 10 39 C6.7 39 3.4 39 0 39 C0 26.13 0 13.26 0 0 Z " fill="#F47E32" transform="translate(535,55)"/>
<path d="M0 0 C3.125 0.1875 3.125 0.1875 6.125 2.1875 C8.19410593 2.21499478 8.19410593 2.21499478 10.3125 1.8125 C12.1996875 1.503125 12.1996875 1.503125 14.125 1.1875 C14.125 3.8275 14.125 6.4675 14.125 9.1875 C11.485 9.5175 8.845 9.8475 6.125 10.1875 C6.06441406 11.40308594 6.00382812 12.61867188 5.94140625 13.87109375 C5.85701668 15.45574228 5.7723679 17.04037702 5.6875 18.625 C5.62852539 19.82866211 5.62852539 19.82866211 5.56835938 21.05664062 C5.23828125 27.07421875 5.23828125 27.07421875 4.125 28.1875 C1.45441149 28.32865161 -1.19932238 28.22997107 -3.875 28.1875 C-3.90386338 23.70834672 -3.92175187 19.22921709 -3.9375 14.75 C-3.94587891 13.47060547 -3.95425781 12.19121094 -3.96289062 10.87304688 C-3.96611328 9.65810547 -3.96933594 8.44316406 -3.97265625 7.19140625 C-3.97789307 6.06549072 -3.98312988 4.9395752 -3.98852539 3.77954102 C-3.8284982 0.125759 -3.68055889 0.24003645 0 0 Z " fill="#2C6BAE" transform="translate(263.875,65.8125)"/>
<path d="M0 0 C5.625 -0.25 5.625 -0.25 9 2 C11.76093443 6.61694721 13.98576808 11.57827555 13 17 C11.00771679 20.44818248 9.76872015 21.72774495 6 23.0625 C3 23 3 23 0.625 21.0625 C0.08875 20.381875 -0.4475 19.70125 -1 19 C-1.45890625 19.49371094 -1.9178125 19.98742187 -2.390625 20.49609375 C-3.00421875 21.13675781 -3.6178125 21.77742188 -4.25 22.4375 C-4.85328125 23.07558594 -5.4565625 23.71367188 -6.078125 24.37109375 C-8.12416865 26.10524051 -9.35451893 26.69937715 -12 27 C-12.66 26.67 -13.32 26.34 -14 26 C-13.43455575 22.23599798 -11.87689907 20.49953416 -9.1875 17.875 C-8.50042969 17.19179688 -7.81335938 16.50859375 -7.10546875 15.8046875 C-3.41982645 12.64556553 -0.8474459 11.73069745 4 12 C4.33 11.34 4.66 10.68 5 10 C3.35 10 1.7 10 0 10 C0.66 9.01 1.32 8.02 2 7 C2 5.68 2 4.36 2 3 C1.34 2.67 0.68 2.34 0 2 C0 1.34 0 0.68 0 0 Z " fill="#2E72BB" transform="translate(141,30)"/>
<path d="M0 0 C5.64837662 1.78369788 11.21645312 3.76227732 16.75 5.875 C17.38752197 6.10719238 18.02504395 6.33938477 18.68188477 6.57861328 C25.20259968 9.1172448 28.829912 13.24051382 32.375 19.125 C32.89835937 19.97320312 33.42171875 20.82140625 33.9609375 21.6953125 C35 24 35 24 34 27 C31.875 27 31.875 27 29 26 C27.68359375 24.328125 27.68359375 24.328125 26.3125 22.25 C22.78654282 17.19101795 18.55040201 15.38106557 13 13 C3.65605836 8.81042504 3.65605836 8.81042504 0.875 5.375 C0 3 0 3 0 0 Z " fill="#349631" transform="translate(152,33)"/>
<path d="M0 0 C2.64 0 5.28 0 8 0 C8 9.24 8 18.48 8 28 C5.36 28 2.72 28 0 28 C-1.29361994 25.41276011 -1.12948949 23.51886997 -1.1328125 20.625 C-1.13410156 19.55765625 -1.13539063 18.4903125 -1.13671875 17.390625 C-1.13285156 16.27171875 -1.12898438 15.1528125 -1.125 14 C-1.12886719 12.88109375 -1.13273437 11.7621875 -1.13671875 10.609375 C-1.13542969 9.54203125 -1.13414062 8.4746875 -1.1328125 7.375 C-1.13168457 6.39273438 -1.13055664 5.41046875 -1.12939453 4.3984375 C-1 2 -1 2 0 0 Z " fill="#306CAD" transform="translate(382,66)"/>
<path d="M0 0 C0.144375 1.093125 0.28875 2.18625 0.4375 3.3125 C0.88288104 6.93122987 0.88288104 6.93122987 2 10 C4.23236116 10.91849826 4.23236116 10.91849826 6.875 11.5 C10.44233811 12.37363382 12.71259805 13.03092197 15 16 C15 16.66 15 17.32 15 18 C14.01 18.33 13.02 18.66 12 19 C11.34 19.99 10.68 20.98 10 22 C9.4225 21.34 8.845 20.68 8.25 20 C6.00346023 17.55709077 6.00346023 17.55709077 2 18 C1.67 19.32 1.34 20.64 1 22 C-4.35315985 22.35687732 -4.35315985 22.35687732 -6.8125 21 C-8.64047397 17.921307 -9.15103549 14.56731447 -9 11 C-8.34 10.01 -7.68 9.02 -7 8 C-6.896875 7.175 -6.79375 6.35 -6.6875 5.5 C-6 3 -6 3 -3.5 1.1875 C-1 0 -1 0 0 0 Z " fill="#296AB6" transform="translate(93,30)"/>
<path d="M0 0 C0.33 0.66 0.66 1.32 1 2 C0.67 2.99 0.34 3.98 0 5 C3.465 4.505 3.465 4.505 7 4 C7.625 6.375 7.625 6.375 8 9 C7.34 9.66 6.68 10.32 6 11 C7.32 11.66 8.64 12.32 10 13 C9.41992188 13.09796875 8.83984375 13.1959375 8.2421875 13.296875 C3.01720809 14.29703608 -0.82085238 15.51737698 -5 19 C-5.40089844 19.86367188 -5.80179688 20.72734375 -6.21484375 21.6171875 C-8 24 -8 24 -11.35546875 24.48828125 C-13.25232422 24.40126953 -13.25232422 24.40126953 -15.1875 24.3125 C-16.45980469 24.26738281 -17.73210937 24.22226562 -19.04296875 24.17578125 C-20.01878906 24.11777344 -20.99460937 24.05976562 -22 24 C-22 24.66 -22 25.32 -22 26 C-23.32 25.34 -24.64 24.68 -26 24 C-26 23.67 -26 23.34 -26 23 C-19.565 22.505 -19.565 22.505 -13 22 C-12.67 19.69 -12.34 17.38 -12 15 C-11.34 15.33 -10.68 15.66 -10 16 C-6.86020796 10.57498456 -6.86020796 10.57498456 -4 5 C-3.34 5 -2.68 5 -2 5 C-2 4.34 -2 3.68 -2 3 C-2.66 3 -3.32 3 -4 3 C-3 1 -3 1 0 0 Z M3 5 C3 6.32 3 7.64 3 9 C4.32 8.67 5.64 8.34 7 8 C6.67 7.01 6.34 6.02 6 5 C5.01 5 4.02 5 3 5 Z " fill="#4394D1" transform="translate(136,28)"/>
<path d="M0 0 C2.8125 0.875 2.8125 0.875 4.8125 2.875 C4.9375 6.5 4.9375 6.5 4.8125 9.875 C6.111875 9.99875 7.41125 10.1225 8.75 10.25 C10.96484375 10.4609375 10.96484375 10.4609375 12.8125 10.875 C13.1425 11.535 13.4725 12.195 13.8125 12.875 C10.35423658 12.93289006 6.89609707 12.96855821 3.4375 13 C2.45265625 13.01675781 1.4678125 13.03351562 0.453125 13.05078125 C-0.48789063 13.05722656 -1.42890625 13.06367187 -2.3984375 13.0703125 C-3.70240479 13.08602295 -3.70240479 13.08602295 -5.03271484 13.10205078 C-7.1875 12.875 -7.1875 12.875 -9.1875 10.875 C-9.11008443 6.69455916 -8.78251122 4.55501282 -6 1.375 C-3.1875 -0.125 -3.1875 -0.125 0 0 Z " fill="#F05D0B" transform="translate(78.1875,47.125)"/>
<path d="M0 0 C0 0.66 0 1.32 0 2 C-0.58007812 2.30292969 -1.16015625 2.60585938 -1.7578125 2.91796875 C-10.862721 7.73512595 -10.862721 7.73512595 -17 15.75 C-19 19 -19 19 -22.25 19.9375 C-23.1575 19.958125 -24.065 19.97875 -25 20 C-26 17 -26 17 -24.84765625 14.4765625 C-20.0764765 6.85520317 -15.96272592 3.14078373 -7.8125 -0.375 C-4.80495164 -1.04334408 -2.93311936 -0.86268216 0 0 Z " fill="#41A5EB" transform="translate(77,39)"/>
<path d="M0 0 C2.0625 0.4375 2.0625 0.4375 4 1 C4.31440578 6.24009642 3.93847184 9.59229224 1 14 C-2.25959069 16.75254325 -4.09862282 17.93323132 -8.375 18.25 C-9.24125 18.1675 -10.1075 18.085 -11 18 C-11.33 17.01 -11.66 16.02 -12 15 C-12.66 14.67 -13.32 14.34 -14 14 C-12.783125 13.525625 -11.56625 13.05125 -10.3125 12.5625 C-5.09145882 10.0075224 -3.39664444 6.07101162 -1 1 C-0.67 0.67 -0.34 0.34 0 0 Z " fill="#70AB47" transform="translate(139,58)"/>
<path d="M0 0 C3.5 0.125 3.5 0.125 4.5 1.125 C4.73701239 3.98377909 4.92219182 6.82383297 5.0625 9.6875 C5.10568359 10.49380859 5.14886719 11.30011719 5.19335938 12.13085938 C5.29975262 14.12868805 5.40040888 16.1268207 5.5 18.125 C4.84 18.455 4.18 18.785 3.5 19.125 C3.5 13.515 3.5 7.905 3.5 2.125 C1.52 2.125 -0.46 2.125 -2.5 2.125 C-2.5 14.995 -2.5 27.865 -2.5 41.125 C-0.52 41.125 1.46 41.125 3.5 41.125 C3.5 35.845 3.5 30.565 3.5 25.125 C3.83 25.125 4.16 25.125 4.5 25.125 C4.5 30.735 4.5 36.345 4.5 42.125 C1.86 42.125 -0.78 42.125 -3.5 42.125 C-5.39623202 40.22876798 -4.62897626 37.46129641 -4.63894653 34.9387207 C-4.6369223 34.07206787 -4.63489807 33.20541504 -4.6328125 32.3125 C-4.63376923 31.42844482 -4.63472595 30.54438965 -4.63571167 29.63354492 C-4.63639351 27.76057871 -4.63453893 25.88761014 -4.63037109 24.01464844 C-4.62502289 21.13731612 -4.63031593 18.26013992 -4.63671875 15.3828125 C-4.63605797 13.56770799 -4.63477681 11.75260357 -4.6328125 9.9375 C-4.63483673 9.07084717 -4.63686096 8.20419434 -4.63894653 7.3112793 C-4.61070013 0.16466786 -4.61070013 0.16466786 0 0 Z " fill="#85A9D0" transform="translate(446.5,51.875)"/>
<path d="M0 0 C-0.33 1.65 -0.66 3.3 -1 5 C-2.03898437 5.04898438 -3.07796875 5.09796875 -4.1484375 5.1484375 C-11.24150501 5.51790357 -18.07066695 5.93062478 -24.984375 7.6953125 C-27.26916662 8.04068798 -28.81575286 7.69856553 -31 7 C-29.44219668 6.32243118 -27.87849904 5.65840543 -26.3125 5 C-25.44238281 4.62875 -24.57226562 4.2575 -23.67578125 3.875 C-20.9427998 2.98129512 -18.85299066 2.83550324 -16 3 C-16 2.34 -16 1.68 -16 1 C-5.62642369 -1.48063781 -5.62642369 -1.48063781 0 0 Z " fill="#6B8BBE" transform="translate(185,79)"/>
<path d="M0 0 C1.51987588 -0.08256871 3.04112785 -0.13988627 4.5625 -0.1875 C5.83287109 -0.23970703 5.83287109 -0.23970703 7.12890625 -0.29296875 C13.87148158 0.39504914 19.19027091 4.2442929 24.625 8 C25.90814354 8.87604177 27.1919832 9.7510649 28.4765625 10.625 C29.07629883 11.03363281 29.67603516 11.44226562 30.29394531 11.86328125 C32.48329753 13.32201392 34.72694719 14.67622978 37 16 C36.67 18.31 36.34 20.62 36 23 C34.13901413 21.31625088 32.96162415 19.92598943 31.796875 17.6796875 C29.57571785 14.36726618 26.8408457 12.46265523 23.5625 10.3125 C22.98951172 9.92255859 22.41652344 9.53261719 21.82617188 9.13085938 C15.56672468 4.91707731 11.03617085 3.57200863 3.58203125 2.5625 C2.72996094 2.376875 1.87789062 2.19125 1 2 C0.67 1.34 0.34 0.68 0 0 Z " fill="#CBCECC" transform="translate(143,23)"/>
<path d="M0 0 C0.69649658 0.01571045 1.39299316 0.0314209 2.1105957 0.04760742 C2.86791992 0.05727539 3.62524414 0.06694336 4.40551758 0.0769043 C5.19120117 0.10204102 5.97688477 0.12717773 6.78637695 0.15307617 C7.98230469 0.17337891 7.98230469 0.17337891 9.20239258 0.1940918 C11.16817663 0.22940528 13.13361278 0.2832117 15.09887695 0.34057617 C15.09887695 0.67057617 15.09887695 1.00057617 15.09887695 1.34057617 C12.78887695 1.67057617 10.47887695 2.00057617 8.09887695 2.34057617 C7.76887695 3.66057617 7.43887695 4.98057617 7.09887695 6.34057617 C8.08887695 7.00057617 9.07887695 7.66057617 10.09887695 8.34057617 C10.09887695 9.33057617 10.09887695 10.32057617 10.09887695 11.34057617 C11.08887695 12.00057617 12.07887695 12.66057617 13.09887695 13.34057617 C11.77887695 13.67057617 10.45887695 14.00057617 9.09887695 14.34057617 C8.76887695 13.68057617 8.43887695 13.02057617 8.09887695 12.34057617 C7.76887695 18.61057617 7.43887695 24.88057617 7.09887695 31.34057617 C6.43887695 31.34057617 5.77887695 31.34057617 5.09887695 31.34057617 C5.09887695 21.77057617 5.09887695 12.20057617 5.09887695 2.34057617 C1.79887695 2.67057617 -1.50112305 3.00057617 -4.90112305 3.34057617 C-1.90112305 0.34057617 -1.90112305 0.34057617 0 0 Z " fill="#8FBDE3" transform="translate(112.901123046875,13.659423828125)"/>
<path d="M0 0 C1.93742341 -0.02703381 3.87495479 -0.04641125 5.8125 -0.0625 C6.89144531 -0.07410156 7.97039063 -0.08570312 9.08203125 -0.09765625 C12 0 12 0 15 1 C15 1.66 15 2.32 15 3 C17.31 3 19.62 3 22 3 C22 3.66 22 4.32 22 5 C22.99 5.33 23.98 5.66 25 6 C19.9929009 7.48243307 15.27438873 6.67323012 10.1875 6.0625 C9.30384766 5.96259766 8.42019531 5.86269531 7.50976562 5.75976562 C5.33896187 5.51335006 3.16922363 5.25989965 1 5 C0.67 3.35 0.34 1.7 0 0 Z " fill="#5980B7" transform="translate(55,79)"/>
<path d="M0 0 C2.17394654 1.15943815 3.48120474 1.94598594 4.875 4 C4.63046876 7.34192692 4.26956443 8.60543557 1.875 11 C-1.75 10.625 -1.75 10.625 -5.125 10 C-5.785 8.35 -6.445 6.7 -7.125 5 C-2.7347561 0 -2.7347561 0 0 0 Z " fill="#4576B2" transform="translate(387.125,52)"/>
<path d="M0 0 C0.66 0.33 1.32 0.66 2 1 C2.625 3.5625 2.625 3.5625 3 6 C1.76446724 7.20254524 0.51097661 8.38666232 -0.75 9.5625 C-1.79414063 10.55443359 -1.79414063 10.55443359 -2.859375 11.56640625 C-5 13 -5 13 -7.265625 12.71484375 C-7.83796875 12.47894531 -8.4103125 12.24304687 -9 12 C-8.45015228 8.12488273 -6.72444669 6.40423494 -3.9375 3.75 C-3.20402344 3.04359375 -2.47054687 2.3371875 -1.71484375 1.609375 C-1.14894531 1.07828125 -0.58304688 0.5471875 0 0 Z " fill="#4F81C2" transform="translate(136,44)"/>
<path d="M0 0 C1.60517097 0.08733576 3.20921662 0.19552224 4.8125 0.3125 C6.15248047 0.39951172 6.15248047 0.39951172 7.51953125 0.48828125 C10.32671925 1.06740192 11.30697846 1.7220142 13 4 C13 4.66 13 5.32 13 6 C12.01 6.33 11.02 6.66 10 7 C9.01 8.485 9.01 8.485 8 10 C6.88625 8.7934375 6.88625 8.7934375 5.75 7.5625 C3.24695171 5.23011409 2.2819045 4.36465606 -1 4 C-0.67 2.68 -0.34 1.36 0 0 Z " fill="#2B61A9" transform="translate(95,42)"/>
<path d="M0 0 C0.33 0.99 0.66 1.98 1 3 C-1.31 5.31 -3.62 7.62 -6 10 C-5.34 10.66 -4.68 11.32 -4 12 C-5.45449401 13.0055761 -6.91372443 14.00430435 -8.375 15 C-9.59316406 15.8353125 -9.59316406 15.8353125 -10.8359375 16.6875 C-13 18 -13 18 -15 18 C-13.53289058 13.15853891 -10.6487256 9.44051028 -7 6 C-6.34 6 -5.68 6 -5 6 C-4.731875 5.38125 -4.46375 4.7625 -4.1875 4.125 C-3 2 -3 2 0 0 Z " fill="#FBA658" transform="translate(63,22)"/>
<path d="M0 0 C0.33 1.32 0.66 2.64 1 4 C2.32 4.33 3.64 4.66 5 5 C5 5.66 5 6.32 5 7 C6.099763 8.56266521 6.099763 8.56266521 7.5 10.125 C8.7375 11.548125 8.7375 11.548125 10 13 C9.01 13.495 9.01 13.495 8 14 C7.2575 13.030625 6.515 12.06125 5.75 11.0625 C4.02690085 8.97612639 3.26131306 8.09887521 0.6875 7.125 C0.130625 7.08375 -0.42625 7.0425 -1 7 C-1 9.31 -1 11.62 -1 14 C0.32 14.66 1.64 15.32 3 16 C0.36749612 17.31625194 -0.80179056 16.74813658 -3.625 16.0625 C-4.44226563 15.86785156 -5.25953125 15.67320313 -6.1015625 15.47265625 C-6.72804688 15.31667969 -7.35453125 15.16070312 -8 15 C-7.01 14.67 -6.02 14.34 -5 14 C-5.66 13.01 -6.32 12.02 -7 11 C-7.125 7.8125 -7.125 7.8125 -7 5 C-4.69 5.33 -2.38 5.66 0 6 C0 4.02 0 2.04 0 0 Z M-5 7 C-5.33 8.32 -5.66 9.64 -6 11 C-5.01 11.33 -4.02 11.66 -3 12 C-2.67 10.35 -2.34 8.7 -2 7 C-2.99 7 -3.98 7 -5 7 Z " fill="#92B6DB" transform="translate(100,26)"/>
<path d="M0 0 C3.48539917 0.64544429 6.02819057 2.10134397 9 4 C8.67 4.99 8.34 5.98 8 7 C5.8125 7.8125 5.8125 7.8125 3 8 C0.1875 5.5625 0.1875 5.5625 -2 3 C-1.34 2.01 -0.68 1.02 0 0 Z " fill="#355C9C" transform="translate(106,50)"/>
<path d="M0 0 C3.0916909 2.52956528 3.90931332 5.22454612 5 9 C2 10 2 10 -1 9 C-2.6875 5.9375 -2.6875 5.9375 -4 3 C-3.34 3 -2.68 3 -2 3 C-2 2.34 -2 1.68 -2 1 C-1.34 0.67 -0.68 0.34 0 0 Z " fill="#55B262" transform="translate(182,50)"/>
<path d="M0 0 C0 0.66 0 1.32 0 2 C-3.85756507 4.15305957 -6.55129785 5.39253254 -11 5 C-11.33 4.01 -11.66 3.02 -12 2 C-4.71428571 -1.57142857 -4.71428571 -1.57142857 0 0 Z " fill="#328BDB" transform="translate(77,39)"/>
<path d="M0 0 C-3.42521129 4.12781873 -5.42458383 6.31532061 -10.875 6.875 C-12.2489486 6.94301726 -13.62438242 6.99388614 -15 7 C-12.82104432 3.73156648 -11.50412161 2.96828392 -8.0625 1.25 C-7.18722656 0.80140625 -6.31195313 0.3528125 -5.41015625 -0.109375 C-3 -1 -3 -1 0 0 Z " fill="#C0C2C2" transform="translate(77,31)"/>
<path d="M0 0 C0.99 0.33 1.98 0.66 3 1 C2.67 2.98 2.34 4.96 2 7 C-1.75 8.125 -1.75 8.125 -4 7 C-3.43628586 3.73045798 -2.50037734 2.17424117 0 0 Z " fill="#437DC5" transform="translate(131,49)"/>
<path d="M0 0 C2 3 2 3 1.625 5.6875 C1.41875 6.450625 1.2125 7.21375 1 8 C1.99 7.67 2.98 7.34 4 7 C4 7.66 4 8.32 4 9 C-0.62 9 -5.24 9 -10 9 C-10 9.66 -10 10.32 -10 11 C-11.32 10.34 -12.64 9.68 -14 9 C-14 8.67 -14 8.34 -14 8 C-7.565 7.505 -7.565 7.505 -1 7 C-0.67 4.69 -0.34 2.38 0 0 Z " fill="#A7C7E4" transform="translate(124,43)"/>
<path d="M0 0 C6.51791392 -0.3540919 11.17521449 -0.03901852 17 3 C16.34 3.66 15.68 4.32 15 5 C12.25154438 4.44099208 9.67731554 3.79790733 7 3 C5.66672781 2.62478268 4.33339967 2.24976406 3 1.875 C2.01 1.58625 1.02 1.2975 0 1 C0 0.67 0 0.34 0 0 Z " fill="#C4C4C6" transform="translate(143,23)"/>
<path d="M0 0 C0.99 0 1.98 0 3 0 C2.67 4.62 2.34 9.24 2 14 C1.34 14 0.68 14 0 14 C-1.25664978 11.09399739 -2 9.20395416 -2 6 C-1.01 6 -0.02 6 1 6 C0.67 4.02 0.34 2.04 0 0 Z M1 1 C2 3 2 3 2 3 Z " fill="#7BAAD8" transform="translate(112,33)"/>
<path d="M0 0 C0 0.33 0 0.66 0 1 C-4.29 1 -8.58 1 -13 1 C-13.33 1.99 -13.66 2.98 -14 4 C-14.66 4 -15.32 4 -16 4 C-16.33 4.66 -16.66 5.32 -17 6 C-17 4.68 -17 3.36 -17 2 C-11.35612606 -1.76258262 -6.43392672 -0.91112252 0 0 Z " fill="#96B6D7" transform="translate(323,66)"/>
<path d="M0 0 C0 0.66 0 1.32 0 2 C-1.01320313 2.19916016 -1.01320313 2.19916016 -2.046875 2.40234375 C-3.38492188 2.66724609 -3.38492188 2.66724609 -4.75 2.9375 C-5.63171875 3.11152344 -6.5134375 3.28554688 -7.421875 3.46484375 C-9.63235053 3.92368488 -11.81512068 4.43336074 -14 5 C-14 4.34 -14 3.68 -14 3 C-12.42274653 2.29866401 -10.83788667 1.614417 -9.25 0.9375 C-7.92742187 0.36322266 -7.92742187 0.36322266 -6.578125 -0.22265625 C-3.84743691 -1.04600008 -2.63098653 -0.9773992 0 0 Z " fill="#C9C9C9" transform="translate(92,24)"/>
<path d="M0 0 C-0.66 0.66 -1.32 1.32 -2 2 C-1.67 2.66 -1.34 3.32 -1 4 C-2.98 4 -4.96 4 -7 4 C-7 3.34 -7 2.68 -7 2 C-7.66 1.67 -8.32 1.34 -9 1 C-5.57367167 -0.61798838 -3.61944899 -1.34053666 0 0 Z " fill="#84B85C" transform="translate(134,71)"/>
<path d="M0 0 C0.99 0.495 0.99 0.495 2 1 C2 3.31 2 5.62 2 8 C3.299375 8.12375 4.59875 8.2475 5.9375 8.375 C8.15234375 8.5859375 8.15234375 8.5859375 10 9 C10.33 9.66 10.66 10.32 11 11 C7.37 10.67 3.74 10.34 0 10 C0 6.7 0 3.4 0 0 Z " fill="#F7AF87" transform="translate(81,49)"/>
<path d="M0 0 C1.07310858 3.27185553 0.89263102 5.42947592 0.0625 8.75 C-0.22947266 9.94882813 -0.22947266 9.94882813 -0.52734375 11.171875 C-0.68332031 11.77515625 -0.83929688 12.3784375 -1 13 C-0.34 13.33 0.32 13.66 1 14 C-0.98 14.99 -0.98 14.99 -3 16 C-2.57910004 10.39538469 -2.08386889 5.27913453 0 0 Z " fill="#FCDE96" transform="translate(137,82)"/>
<path d="M0 0 C1.85772162 0.08984301 3.71247985 0.24611861 5.5625 0.4375 C7.08037109 0.59025391 7.08037109 0.59025391 8.62890625 0.74609375 C9.80259766 0.87177734 9.80259766 0.87177734 11 1 C11 1.33 11 1.66 11 2 C7.7 2.33 4.4 2.66 1 3 C1 4.32 1 5.64 1 7 C0.01 7 -0.98 7 -2 7 C-1.125 1.125 -1.125 1.125 0 0 Z " fill="#9AB7D9" transform="translate(420,86)"/>
<path d="M0 0 C0.8353125 0.37125 0.8353125 0.37125 1.6875 0.75 C0.759375 1.28625 -0.16875 1.8225 -1.125 2.375 C-4.55266479 4.92894631 -5.7162685 6.84810078 -7.3125 10.75 C-7.6425 10.75 -7.9725 10.75 -8.3125 10.75 C-8.07084074 6.56123944 -7.89831114 4.38330934 -5 1.25 C-2.3125 -0.25 -2.3125 -0.25 0 0 Z " fill="#F6A375" transform="translate(77.3125,47.25)"/>
<path d="M0 0 C2.97 0.99 5.94 1.98 9 3 C5.86650268 4.04449911 5.01031744 3.93423645 2 3 C2 3.66 2 4.32 2 5 C2.66 5 3.32 5 4 5 C4.33 5.99 4.66 6.98 5 8 C3.0625 7.375 3.0625 7.375 1 6 C0.25 2.875 0.25 2.875 0 0 Z " fill="#69AF5B" transform="translate(152,33)"/>
<path d="M0 0 C0.66 0 1.32 0 2 0 C2 0.99 2 1.98 2 3 C2.99 3.33 3.98 3.66 5 4 C4.01 4.66 3.02 5.32 2 6 C1.26656572 9.06556598 1.26656572 9.06556598 1 12 C0.67 12 0.34 12 0 12 C0 8.04 0 4.08 0 0 Z " fill="#126FC5" transform="translate(120,33)"/>
<path d="M0 0 C0.66 0.66 1.32 1.32 2 2 C2.66 2.33 3.32 2.66 4 3 C-1.75 7 -1.75 7 -4 7 C-2.92598892 4.08482708 -2.22189824 2.22189824 0 0 Z " fill="#FDD0A3" transform="translate(52,33)"/>
<path d="M0 0 C1.65 0 3.3 0 5 0 C5.04254356 1.99954746 5.04080783 4.00041636 5 6 C4 7 4 7 1.4375 7.0625 C0.2309375 7.0315625 0.2309375 7.0315625 -1 7 C-1 6.34 -1 5.68 -1 5 C-0.360625 4.896875 0.27875 4.79375 0.9375 4.6875 C1.618125 4.460625 2.29875 4.23375 3 4 C3.33 3.01 3.66 2.02 4 1 C2.68 0.67 1.36 0.34 0 0 Z " fill="#9BB8D8" transform="translate(315,82)"/>
<path d="M0 0 C0.66 0.33 1.32 0.66 2 1 C-2.625 6.875 -2.625 6.875 -6 8 C-4.73058503 4.08597051 -3.48832306 2.20927127 0 0 Z " fill="#FAC961" transform="translate(146,69)"/>
<path d="M0 0 C2 3 2 3 2 5 C-1.3 5 -4.6 5 -8 5 C-7.34 3.68 -6.68 2.36 -6 1 C-5.67 1.66 -5.34 2.32 -5 3 C-2.47266765 3.65555119 -2.47266765 3.65555119 0 4 C0 2.68 0 1.36 0 0 Z " fill="#87CC9D" transform="translate(517,74)"/>
<path d="M0 0 C0 3 0 3 -1.375 4.6875 C-3 6 -3 6 -5 6 C-5 6.99 -5 7.98 -5 9 C-5.99 8.67 -6.98 8.34 -8 8 C-7.34 8 -6.68 8 -6 8 C-5.9071875 7.13375 -5.9071875 7.13375 -5.8125 6.25 C-4.67972699 3.11309013 -2.65802405 1.90832496 0 0 Z " fill="#ECA17C" transform="translate(78,73)"/>
<path d="M0 0 C2.50037734 2.17424117 3.43628586 3.73045798 4 7 C2.02 7.33 0.04 7.66 -2 8 C-1.67 7.01 -1.34 6.02 -1 5 C-0.34 5 0.32 5 1 5 C0.67 3.35 0.34 1.7 0 0 Z " fill="#F0CF72" transform="translate(165,75)"/>
<path d="M0 0 C0.33 0.66 0.66 1.32 1 2 C-0.25 4.625 -0.25 4.625 -2 7 C-2.99 7 -3.98 7 -5 7 C-4.67 6.34 -4.34 5.68 -4 5 C-3.34 5 -2.68 5 -2 5 C-2 4.34 -2 3.68 -2 3 C-2.66 3 -3.32 3 -4 3 C-3 1 -3 1 0 0 Z " fill="#97C2E5" transform="translate(136,28)"/>
<path d="M0 0 C0 0.66 0 1.32 0 2 C0.99 2.33 1.98 2.66 3 3 C-0.98196457 4.05404945 -3.98195309 3.84098656 -8 3 C-4.93882432 0.37613513 -4.26826873 0 0 0 Z " fill="#DED2D5" transform="translate(77,82)"/>
</svg>
